<svg xmlns="http://www.w3.org/2000/svg" viewBox="0 0 64 64">
  <rect width="64" height="64" fill="#ffffff" />

  <g transform="translate(-3.8 -1.6) scale(0.625) rotate(-13 48 39)">
    <path
      d="M45,98c-6,0,-6,0,-6,-20c-2,-4,-2,-4,-6,-6c-40,-10,-40,-34,25,-50c80,-20,80,-8,10,40c-8,6,-8,6,-12,20l-4,14c-1,2,-1,2,-8,2"
      fill="#b7da8b"
      stroke="#000000"
      stroke-width="2.4"
      stroke-linecap="round"
      stroke-linejoin="round"
    />
    <circle cx="28" cy="85" r="5.2" fill="#000000" />
    <circle cx="16" cy="52" r="5.2" fill="#000000" />
    <circle cx="28" cy="48" r="5.2" fill="#000000" />
    <circle cx="40" cy="43" r="5.2" fill="#000000" />
    <circle cx="52" cy="34" r="5.2" fill="#000000" />
    <circle cx="32" cy="60" r="5.2" fill="#ffffff" stroke="#000000" stroke-width="1.4" />
    <circle cx="68" cy="85" r="5.2" fill="#000000" />
    <circle cx="72" cy="48" r="5.2" fill="#000000" />
    <circle cx="84" cy="40" r="5.2" fill="#000000" />
    <circle cx="94" cy="32" r="5.2" fill="#000000" />
    <circle cx="104" cy="24" r="5.2" fill="#000000" />
    <circle cx="78" cy="30" r="5.2" fill="#ffffff" stroke="#000000" stroke-width="1.4" />
  </g>
</svg>
